mtllib ./hand.mtl

g s.0008
usemap Standard737373
usemtl Standard737373
v -0.008512519 -0.011846474 0.004530056
v -0.0076930976 -0.011875314 -0.011605751
v -0.013224912 -0.008604028 -0.011524048
v -0.014670885 -0.008394688 0.0035397904
v -0.013850369 0.0045089956 0.002465642
v -0.014728774 0.0003783305 -0.009653342
v -0.007570899 0.0007842778 -0.010957046
v -0.008308863 0.00055925056 0.004999032
v -0.008944675 -0.002964766 0.04200639
v -0.007708074 -0.011408935 0.03076948
v -0.016613248 -0.008097431 0.027314172
v -0.014226728 -0.0009548288 0.040941536
v -0.02215394 0.0020598848 0.011285942
v -0.02257195 -0.0029087238 -0.0001996466
v 0.016691468 -0.00003883407 0.004374988
v 0.01640967 -0.00001055478 -0.00898484
v 0.012971401 -0.010117744 -0.010017128
v 0.013962831 -0.009433168 0.004000868
v 0.008023337 0.0083181328 0.025385878
v 0.0072523128 0.003363628 0.03731228
v 0.007756219 -0.00042154044 0.03053091
v 0.007936382 0.004949259 0.018370768
v 0.008848732 0.00007078671 0.0055811676
v 0.010140556 0.00019232726 -0.010240539
v 0.009548741 -0.012489696 -0.010668908
v 0.00830058 -0.012350342 0.0051188844
v -0.0017105256 -0.015455548 0.0048792524
v 0.0007065707 -0.01357459 -0.01311397
v 0.0010349901 -0.0019549972 -0.012328575
v -0.00046708796 -0.00010892548 0.0054289176
v -0.00063657076 0.0048183296 0.037741856
v -0.0017358802 -0.00062056776 0.030393136
v -0.0016512065 -0.012618174 0.029991722
v -0.001153454 -0.0041854436 0.04309606
v 0.0060486676 0.003503191 0.03868892
v 0.0073565192 -0.012411805 0.030064848
v 0.005936234 -0.0028626836 0.04276909
v -0.014116802 -0.0072149344 0.01506519
v -0.008207241 -0.011988594 0.018756064
v -0.014479398 0.0018451878 0.016446556
v -0.016804328 0.0009166562 0.02927046
v -0.009181754 0.00026577204 0.019279694
v -0.00783587 0.00056101556 0.031284924
v -0.0011575288 -0.0003430635 0.019720648
v 0.008259106 -0.00017531752 0.019877248
v 0.014209481 -0.00019547212 0.021168728
v 0.014830028 -0.0011151211 0.03046538
v 0.011782301 -0.00926245 0.020215188
v 0.012682026 -0.009764451 0.029444422
v 0.007079009 -0.013792674 0.019528148
v -0.001104828 -0.014536085 0.019381288
v -0.014527198 0.0057167456 0.039460088
v -0.010147056 0.012919379 0.02766857
v -0.012427002 0.0062195976 0.020218998
v -0.0042710556 0.006202729 0.021244216
v -0.0032554504 -0.004217664 0.023942104
v -0.009485497 0.0050621524 0.03889437
v -0.0041199996 0.005638211 0.031669784
v -0.00532166 0.012241816 0.027295438
v -0.0063647556 -0.0024548996 0.043268676
v -0.005873295 0.006587145 0.0379992
v -0.0058606296 0.011775412 0.026981496
v -0.006994726 0.004899739 0.020924564
v -0.0009271431 0.0051349604 0.019333862
v -0.0004097183 0.01129134 0.02616205
v 0.00056257756 -0.0028025484 0.043030804
v -0.00034675844 0.0030116762 0.038010156
v 0.00009252834 0.008792981 0.028893016
v -0.0016722439 0.0070431496 0.020709696
v 0.0077845272 0.0078093192 0.020334352
v 0.006489739 0.009512475 0.029295112
v 0.01276065 0.004311054 0.038259788
v 0.014720006 -0.0032249972 0.039588196
v 0.008155456 -0.002101134 0.04195611
v 0.014981236 0.004694054 0.017460282
v 0.01354493 0.009546991 0.02575879
v -0.024174796 0.0047601504 -0.0013719839
v -0.023120008 0.009605861 0.009707368
v -0.011614048 0.010803556 0.011257988
v -0.010931649 0.005704537 0.006734325
v -0.009910782 0.0022625596 0.009685918
v -0.01328881 0.003754207 0.013203638

vn -0.5107481 -0.859729 0.0014968408
vn -0.3794434 -0.7937114 -0.47544184
vn -0.66121056 -0.67732472 -0.32253962
vn -0.7430913 -0.6608436 0.10536192
vn 0.07876632 0.9467222 -0.31227038
vn -0.4328897 0.52177244 -0.7350919
vn 0.10550318 0.681428 -0.724241
vn 0.27457424 0.9615406 0.00698496
vn 0.5622192 -0.42496264 0.709448
vn -0.55174024 -0.81258192 0.18786506
vn -0.8408618 -0.5242961 0.13440655
vn -0.8546972 -0.26396056 0.44700944
vn -0.6137652 -0.61915176 0.48984024
vn -0.83401552 -0.48848444 -0.25651742
vn 0.9924551 0.10728086 0.059362
vn 0.63210976 0.646955 -0.4264818
vn 0.9139924 -0.39026312 -0.11096085
vn 0.7841953 -0.61925504 0.03950734
vn -0.740604 0.65984156 -0.12694399
vn -0.60137504 0.6307113 0.49046036
vn -0.70133872 -0.15998148 -0.6946437
vn -0.51384484 -0.66355824 -0.5437407
vn 0.001550694 0.9999449 0.010377676
vn 0.015987664 0.8917158 -0.4523133
vn 0.37906076 -0.5962387 -0.70768096
vn 0.27450312 -0.9614547 -0.015902756
vn -0.10083366 -0.9946266 -0.02346281
vn 0.062720704 -0.7987891 -0.59833256
vn 0.10695635 0.791858 -0.6012663
vn -0.024087108 0.9992215 -0.03124323
vn 0.9648969 0.15434425 0.2124897
vn -0.8809613 0.2758808 -0.38444372
vn 0.08848101 -0.9055099 0.41499764
vn 0.5953465 -0.52191444 0.6108746
vn 0.8691821 0.31930756 0.37757796
vn 0.2811922 -0.8472272 0.4507072
vn 0.45909484 -0.5815724 0.67156944
vn -0.7714946 -0.6353764 -0.03306097
vn -0.4576813 -0.8874161 0.054957104
vn -0.9490149 0.3124963 -0.04143256
vn -0.9193851 0.38375212 -0.08640108
vn 0.194555 0.979842 0.04536234
vn -0.9629738 0.13938232 -0.23076858
vn 0.05456181 0.9984069 0.014386762
vn -0.014781768 0.9997039 0.019329638
vn 0.6594968 0.748763 0.06646756
vn 0.9081788 -0.398102 -0.12933061
vn 0.9188734 -0.3916208 0.048007976
vn 0.8814691 -0.4685067 0.059275696
vn 0.4030809 -0.9150749 0.012811124
vn -0.00053248696 -0.9973788 0.07235497
vn -0.56474376 0.647375 0.5118301
vn -0.6072764 0.7704682 -0.1938922
vn -0.4085403 -0.3258883 -0.8525794
vn -0.34343356 -0.032761562 -0.9386054
vn 0.9824371 -0.15321506 0.10650178
vn 0.50988044 0.5322851 0.67579176
vn 0.9386322 0.09667194 0.3310953
vn 0.75429904 0.6037734 0.25785772
vn -0.7988184 0.0042961244 0.60155696
vn -0.55011756 0.67137328 0.49661716
vn -0.7507969 0.64566304 -0.1393672
vn -0.72094656 -0.39634656 -0.56845896
vn 0.8641379 -0.06683974 -0.49879684
vn 0.6888437 0.7136964 0.1270111
vn -0.7976804 -0.07035256 0.5989629
vn -0.6122104 0.6225285 0.4875004
vn -0.61299996 0.783555 0.10135375
vn -0.40455776 -0.4753415 -0.7812705
vn 0.8502228 0.32626236 -0.41312704
vn 0.22831338 0.9079345 0.35146516
vn 0.9185437 0.29713644 0.2607446
vn 0.6309166 -0.36874788 0.6826195
vn -0.80323056 -0.25304376 0.539249
vn 0.92853 0.19131086 -0.3181702
vn 0.301913 0.9361344 0.18028002
vn -0.6875911 0.5821445 -0.4339658
vn -0.38870488 0.9082695 0.15477365
vn 0.38114188 0.9182397 0.10754889
vn 0.8829538 0.04719115 -0.4670822
vn 0.5744004 -0.5251821 0.6278916
vn 0.0020364378 0.00074230224 01

vt 00 00
vt 00 00
vt 00 00
vt 00 00
vt 00 00
vt 00 00
vt 00 00
vt 00 00
vt 00 00
vt 00 00
vt 00 00
vt 00 00
vt 00 00
vt 00 00
vt 00 00
vt 00 00
vt 00 00
vt 00 00
vt 00 00
vt 00 00
vt 00 00
vt 00 00
vt 00 00
vt 00 00
vt 00 00
vt 00 00
vt 00 00
vt 00 00
vt 00 00
vt 00 00
vt 00 00
vt 00 00
vt 00 00
vt 00 00
vt 00 00
vt 00 00
vt 00 00
vt 00 00
vt 00 00
vt 00 00
vt 00 00
vt 00 00
vt 00 00
vt 00 00
vt 00 00
vt 00 00
vt 00 00
vt 00 00
vt 00 00
vt 00 00
vt 00 00
vt 00 00
vt 00 00
vt 00 00
vt 00 00
vt 00 00
vt 00 00
vt 00 00
vt 00 00
vt 00 00
vt 00 00
vt 00 00
vt 00 00
vt 00 00
vt 00 00
vt 00 00
vt 00 00
vt 00 00
vt 00 00
vt 00 00
vt 00 00
vt 00 00
vt 00 00
vt 00 00
vt 00 00
vt 00 00
vt 00 00
vt 00 00
vt 00 00
vt 00 00
vt 00 00
vt 00 00

usemap Standard737373
usemtl Standard737373
f  4/4/4 3/3/3 2/2/2 1/1/1 
f  8/8/8 7/7/7 6/6/6 5/5/5 
f  2/2/2 3/3/3 6/6/6 7/7/7 
f  12/12/12 11/11/11 10/10/10 9/9/9 
f  14/14/14 3/3/3 4/4/4 13/13/13 
f  18/18/18 17/17/17 16/16/16 15/15/15 
f  22/22/22 21/21/21 20/20/20 19/19/19 
f  15/15/15 16/16/16 24/24/24 23/23/23 
f  24/24/24 16/16/16 17/17/17 25/25/25 
f  26/26/26 25/25/25 17/17/17 18/18/18 
f  1/1/1 2/2/2 28/28/28 27/27/27 
f  2/2/2 7/7/7 29/29/29 28/28/28 
f  30/30/30 29/29/29 7/7/7 8/8/8 
f  34/34/34 33/33/33 32/32/32 31/31/31 
f  27/27/27 28/28/28 25/25/25 26/26/26 
f  28/28/28 29/29/29 24/24/24 25/25/25 
f  23/23/23 24/24/24 29/29/29 30/30/30 
f  37/37/37 36/36/36 21/21/21 35/35/35 
f  39/39/39 10/10/10 11/11/11 38/38/38 
f  38/38/38 11/11/11 41/41/41 40/40/40 
f  40/40/40 41/41/41 43/43/43 42/42/42 
f  42/42/42 43/43/43 32/32/32 44/44/44 
f  44/44/44 32/32/32 21/21/21 45/45/45 
f  45/45/45 21/21/21 47/47/47 46/46/46 
f  46/46/46 47/47/47 49/49/49 48/48/48 
f  48/48/48 49/49/49 36/36/36 50/50/50 
f  50/50/50 36/36/36 33/33/33 51/51/51 
f  51/51/51 33/33/33 10/10/10 39/39/39 
f  1/1/1 27/27/27 51/51/51 39/39/39 
f  27/27/27 26/26/26 50/50/50 51/51/51 
f  26/26/26 18/18/18 48/48/48 50/50/50 
f  18/18/18 15/15/15 46/46/46 48/48/48 
f  15/15/15 23/23/23 45/45/45 46/46/46 
f  23/23/23 30/30/30 44/44/44 45/45/45 
f  30/30/30 8/8/8 42/42/42 44/44/44 
f  8/8/8 5/5/5 40/40/40 42/42/42 
f  5/5/5 4/4/4 38/38/38 40/40/40 
f  4/4/4 1/1/1 39/39/39 38/38/38 
f  52/52/52 41/41/41 11/11/11 12/12/12 
f  54/54/54 41/41/41 52/52/52 53/53/53 
f  56/56/56 10/10/10 43/43/43 55/55/55 
f  57/57/57 52/52/52 12/12/12 9/9/9 
f  58/58/58 9/9/9 10/10/10 56/56/56 
f  59/59/59 57/57/57 9/9/9 58/58/58 
f  58/58/58 56/56/56 55/55/55 59/59/59 
f  55/55/55 43/43/43 41/41/41 54/54/54 
f  53/53/53 52/52/52 57/57/57 59/59/59 
f  59/59/59 55/55/55 54/54/54 53/53/53 
f  60/60/60 10/10/10 33/33/33 34/34/34 
f  61/61/61 43/43/43 10/10/10 60/60/60 
f  63/63/63 43/43/43 61/61/61 62/62/62 
f  61/61/61 60/60/60 34/34/34 31/31/31 
f  64/64/64 32/32/32 43/43/43 63/63/63 
f  65/65/65 31/31/31 32/32/32 64/64/64 
f  62/62/62 61/61/61 31/31/31 65/65/65 
f  65/65/65 64/64/64 63/63/63 62/62/62 
f  66/66/66 33/33/33 36/36/36 37/37/37 
f  67/67/67 32/32/32 33/33/33 66/66/66 
f  69/69/69 32/32/32 67/67/67 68/68/68 
f  67/67/67 66/66/66 37/37/37 35/35/35 
f  70/70/70 21/21/21 32/32/32 69/69/69 
f  71/71/71 35/35/35 21/21/21 70/70/70 
f  68/68/68 67/67/67 35/35/35 71/71/71 
f  71/71/71 70/70/70 69/69/69 68/68/68 
f  73/73/73 49/49/49 47/47/47 72/72/72 
f  74/74/74 36/36/36 49/49/49 73/73/73 
f  20/20/20 21/21/21 36/36/36 74/74/74 
f  74/74/74 73/73/73 72/72/72 20/20/20 
f  75/75/75 47/47/47 21/21/21 22/22/22 
f  76/76/76 72/72/72 47/47/47 75/75/75 
f  19/19/19 20/20/20 72/72/72 76/76/76 
f  76/76/76 75/75/75 22/22/22 19/19/19 
f  77/77/77 6/6/6 3/3/3 14/14/14 
f  78/78/78 5/5/5 6/6/6 77/77/77 
f  80/80/80 5/5/5 78/78/78 79/79/79 
f  78/78/78 77/77/77 14/14/14 13/13/13 
f  81/81/81 4/4/4 5/5/5 80/80/80 
f  82/82/82 13/13/13 4/4/4 81/81/81 
f  79/79/79 78/78/78 13/13/13 82/82/82 
f  82/82/82 81/81/81 80/80/80 79/79/79 
