<svg xmlns='http://www.w3.org/2000/svg' width='108' height='62' viewBox='0 0 108 62'>
  <title
     id="title4138">aframe-vrmode-noborder-reduced-tracking</title>
  <!-- <path d="m 68.81,21.56 -4.58,0 0,8.27 4.58,0 c 1.139618,0.08109 2.261913,-0.313524 3.1,-1.09 0.711442,-0.831532 1.070234,-1.907909 1,-3"/> -->
  <path
     fill="#fff"
     d="m 6.3535 0.3145 c -3.3137 0 -6 2.6863 -6 6 l 0 19 c 0 3.3137 2.6863 6 6 6 l 42 0 c 3.3137 0 6 -2.6863 6 -6 l 0 -19 c 0 -3.3137 -2.6863 -6 -6 -6 l -42 0 z m 31.2051 6.167 l 0.9063 0 l 0 16.6133 l -0.9063 0 l 0 -16.6133 z m 2.7402 0 l 0.9063 0 l 0 16.6133 l -0.9063 0 l 0 -16.6133 z m -33.5498 0.6357 c 0.7514 0 1.3746 0.2154 1.8682 0.6465 l 0 1.9619 c -0.5673 -0.6283 -1.1938 -0.9424 -1.8789 -0.9424 c -0.9098 0 -1.6486 0.6021 -2.2158 1.8076 c -0.5636 1.2055 -0.8447 2.8166 -0.8447 4.833 c -0 1.9142 0.2633 3.4413 0.79 4.5811 c 0.5304 1.1324 1.2247 1.6982 2.083 1.6982 c 0.7956 0 1.4844 -0.3504 2.0664 -1.0518 l 0 1.7861 c -0.5857 0.6137 -1.3155 0.9209 -2.1885 0.9209 c -1.1272 0 -2.0293 -0.7199 -2.707 -2.1592 c -0.6778 -1.4393 -1.0166 -3.3281 -1.0166 -5.666 c 0 -2.5133 0.3811 -4.5439 1.1436 -6.0928 c 0.7625 -1.5489 1.729 -2.3232 2.9004 -2.3232 z m 17.5986 1.4355 l 0 3.3203 l 1.4258 0 l 0 1.5342 l -1.4258 0 l 0 6.3232 c 0 0.7525 0.0644 1.2899 0.1934 1.6113 c 0.1289 0.3215 0.3423 0.4824 0.6406 0.4824 c 0.2284 0 0.426 -0.1246 0.5918 -0.373 l 0 1.5342 c -0.2136 0.2338 -0.4958 0.3506 -0.8457 0.3506 c -0.9909 0 -1.4863 -1.0953 -1.4863 -3.2871 l 0 -6.6416 l -0.9727 0 l 0 -1.5342 l 0.9727 0 l 0 -2.7393 l 0.9063 -0.5811 z m -11.7412 3.0576 c 0.8435 0 1.5012 0.5148 1.9727 1.5449 c 0.4752 1.0301 0.7129 2.4587 0.7129 4.2852 c 0 1.79 -0.2565 3.2254 -0.7686 4.3066 c -0.5083 1.074 -1.1915 1.6113 -2.0498 1.6113 c -0.8362 0 -1.5049 -0.5226 -2.0059 -1.5674 c -0.4973 -1.0521 -0.7461 -2.4443 -0.7461 -4.1758 c 0 -1.8849 0.2599 -3.3566 0.7793 -4.416 c 0.5194 -1.0594 1.2214 -1.5889 2.1055 -1.5889 z m 6.918 0 c 0.6188 0 1.0921 0.398 1.4199 1.1943 c 0.3278 0.789 0.4912 1.932 0.4912 3.4297 l 0 6.8604 l -0.9063 0 l 0 -6.3994 c 0 -2.3818 -0.4378 -3.5732 -1.3145 -3.5732 c -0.4531 0 -0.8296 0.3401 -1.1279 1.0195 c -0.2947 0.6722 -0.4414 1.5236 -0.4414 2.5537 l 0 6.3994 l -0.9063 0 l 0 -11.2217 l 0.9063 0 l 0 1.8633 l 0.0215 0 c 0.4273 -1.4174 1.047 -2.126 1.8574 -2.126 z m 13.9014 0 c 0.8435 0 1.5012 0.5148 1.9727 1.5449 c 0.4752 1.0301 0.7129 2.4587 0.7129 4.2852 c 0 1.79 -0.2565 3.2254 -0.7686 4.3066 c -0.5083 1.074 -1.1915 1.6113 -2.0498 1.6113 c -0.8362 0 -1.5049 -0.5226 -2.0059 -1.5674 c -0.4973 -1.0521 -0.7461 -2.4443 -0.7461 -4.1758 c 0 -1.8849 0.2599 -3.3566 0.7793 -4.416 c 0.5194 -1.0594 1.2214 -1.5889 2.1055 -1.5889 z m 11.835 0 c 0.7404 0 1.3136 0.475 1.7188 1.4248 c 0.4052 0.9498 0.6074 2.2684 0.6074 3.9561 l 0 0.9424 l -3.9951 0 c 0.0147 1.2493 0.1846 2.2141 0.5088 2.8936 c 0.3242 0.6795 0.7697 1.0186 1.3369 1.0186 c 0.6373 0 1.2227 -0.4161 1.7568 -1.249 l 0 1.6875 c -0.4973 0.716 -1.1549 1.0742 -1.9727 1.0742 c -0.7993 0 -1.427 -0.5079 -1.8838 -1.5234 c -0.4568 -1.0228 -0.6855 -2.4582 -0.6855 -4.3066 c 0 -1.7461 0.2488 -3.1678 0.7461 -4.2637 c 0.501 -1.1032 1.1219 -1.6543 1.8623 -1.6543 z m -15.8574 0.0654 c 0.2357 0 0.4158 0.051 0.541 0.1533 l 0 1.8633 c -0.1584 -0.2411 -0.3862 -0.3613 -0.6846 -0.3613 c -0.3868 0 -0.7111 0.3617 -0.9727 1.085 c -0.2578 0.7233 -0.3867 1.7097 -0.3867 2.959 l 0 5.7197 l -0.9063 0 l 0 -11.2217 l 0.9063 0 l 0 2.3125 l 0.0225 0 c 0.1289 -0.789 0.3256 -1.4025 0.5908 -1.8408 c 0.2652 -0.4457 0.5618 -0.6689 0.8896 -0.6689 z m 21.9687 0 c 0.2357 0 0.4158 0.051 0.541 0.1533 l 0 1.8633 c -0.1584 -0.2411 -0.3862 -0.3613 -0.6846 -0.3613 c -0.3868 0 -0.7111 0.3617 -0.9727 1.085 c -0.2578 0.7233 -0.3867 1.7097 -0.3867 2.959 l 0 5.7197 l -0.9063 0 l 0 -11.2217 l 0.9063 0 l 0 2.3125 l 0.0215 0 c 0.1289 -0.789 0.3266 -1.4025 0.5918 -1.8408 c 0.2652 -0.4457 0.5618 -0.6689 0.8897 -0.6689 z m -38.832 1.4463 c -0.582 0 -1.043 0.3945 -1.3818 1.1836 c -0.3389 0.7817 -0.5078 1.8633 -0.5078 3.2441 c 0 1.3297 0.1711 2.3784 0.5137 3.1455 c 0.3426 0.7671 0.8013 1.1504 1.376 1.1504 c 0.5857 0 1.0346 -0.3764 1.3477 -1.1289 c 0.3168 -0.7525 0.4756 -1.8228 0.4756 -3.2109 c 0 -1.4028 -0.1588 -2.4833 -0.4756 -3.2432 c -0.3131 -0.7598 -0.762 -1.1406 -1.3477 -1.1406 z m 20.8193 0 c -0.582 0 -1.043 0.3945 -1.3818 1.1836 c -0.3389 0.7817 -0.5078 1.8633 -0.5078 3.2441 c 0 1.3297 0.1711 2.3784 0.5137 3.1455 c 0.3426 0.7671 0.8013 1.1504 1.376 1.1504 c 0.5857 0 1.0346 -0.3764 1.3477 -1.1289 c 0.3168 -0.7525 0.4756 -1.8228 0.4756 -3.2109 c 0 -1.4028 -0.1588 -2.4833 -0.4756 -3.2432 c -0.3131 -0.7598 -0.762 -1.1406 -1.3477 -1.1406 z m 11.8848 0 c -0.4273 0 -0.7905 0.3038 -1.0889 0.9102 c -0.2984 0.6064 -0.4818 1.3989 -0.5518 2.3779 l 3.0547 0 c -0.0037 -1.0375 -0.1304 -1.8447 -0.3809 -2.4219 c -0.2468 -0.5772 -0.5912 -0.8662 -1.0332 -0.8662 z"
     />
</svg>
